<?xml version="1.0" encoding="UTF-8"?>
<svg xmlns="http://www.w3.org/2000/svg" xmlns:xlink="http://www.w3.org/1999/xlink" width="48pt" height="48pt" viewBox="0 0 48 48" version="1.1">
<g id="surface1">
<path style=" stroke:none;fill-rule:nonzero;fill:rgb(68.627451%,38.823529%,15.686275%);fill-opacity:1;" d="M 0 41.25 L 0 38.25 C 0 37.421875 0.671875 36.75 1.5 36.75 L 46.5 36.75 C 47.328125 36.75 48 37.421875 48 38.25 L 48 41.25 C 48 42.078125 47.328125 42.75 46.5 42.75 L 1.5 42.75 C 0.671875 42.75 0 42.078125 0 41.25 Z M 0 41.25 "/>
<path style=" stroke:none;fill-rule:nonzero;fill:rgb(63.529412%,32.941176%,14.509804%);fill-opacity:1;" d="M 46.5 39.75 L 46.5 40.5 C 46.5 40.914062 46.164062 41.25 45.75 41.25 L 3 41.25 C 2.171875 41.25 1.5 41.921875 1.5 42.75 L 46.5 42.75 C 47.328125 42.75 48 42.078125 48 41.25 L 48 38.25 C 47.171875 38.25 46.5 38.921875 46.5 39.75 Z M 46.5 39.75 "/>
<path style=" stroke:none;fill-rule:nonzero;fill:rgb(23.529412%,70.588235%,29.019608%);fill-opacity:1;" d="M 15 36.75 L 6 36.75 L 6 13.5 C 6 13.085938 6.335938 12.75 6.75 12.75 L 14.25 12.75 C 14.664062 12.75 15 13.085938 15 13.5 Z M 15 36.75 "/>
<path style=" stroke:none;fill-rule:nonzero;fill:rgb(29.803922%,60.784314%,83.529412%);fill-opacity:1;" d="M 42 36.75 L 33 36.75 L 33 13.5 C 33 13.085938 33.335938 12.75 33.75 12.75 L 41.25 12.75 C 41.664062 12.75 42 13.085938 42 13.5 Z M 42 36.75 "/>
<path style=" stroke:none;fill-rule:nonzero;fill:rgb(92.941176%,17.254902%,22.352941%);fill-opacity:1;" d="M 24 36.75 L 15 36.75 L 15 6 C 15 5.585938 15.335938 5.25 15.75 5.25 L 23.25 5.25 C 23.664062 5.25 24 5.585938 24 6 Z M 24 36.75 "/>
<path style=" stroke:none;fill-rule:nonzero;fill:rgb(100%,81.176471%,40.784314%);fill-opacity:1;" d="M 33 36.75 L 24 36.75 L 24 9 C 24 8.585938 24.335938 8.25 24.75 8.25 L 32.25 8.25 C 32.664062 8.25 33 8.585938 33 9 Z M 33 36.75 "/>
<path style=" stroke:none;fill-rule:nonzero;fill:rgb(79.607843%,12.54902%,17.254902%);fill-opacity:1;" d="M 16.5 35.25 L 21.75 35.25 C 22.164062 35.25 22.5 34.914062 22.5 34.5 L 22.5 7.5 C 22.5 6.671875 23.171875 6 24 6 L 24 36.75 L 15 36.75 C 15 35.921875 15.671875 35.25 16.5 35.25 Z M 16.5 35.25 "/>
<path style=" stroke:none;fill-rule:nonzero;fill:rgb(96.078431%,70.588235%,27.058824%);fill-opacity:1;" d="M 25.5 35.25 L 30.75 35.25 C 31.164062 35.25 31.5 34.914062 31.5 34.5 L 31.5 10.5 C 31.5 9.671875 32.171875 9 33 9 L 33 36.75 L 24 36.75 C 24 35.921875 24.671875 35.25 25.5 35.25 Z M 25.5 35.25 "/>
<path style=" stroke:none;fill-rule:nonzero;fill:rgb(21.176471%,53.333333%,78.431373%);fill-opacity:1;" d="M 34.5 35.25 L 39.75 35.25 C 40.164062 35.25 40.5 34.914062 40.5 34.5 L 40.5 15 C 40.5 14.171875 41.171875 13.5 42 13.5 L 42 36.75 L 33 36.75 C 33 35.921875 33.671875 35.25 34.5 35.25 Z M 34.5 35.25 "/>
<path style=" stroke:none;fill-rule:nonzero;fill:rgb(5.490196%,57.254902%,27.843137%);fill-opacity:1;" d="M 7.5 35.25 L 12.75 35.25 C 13.164062 35.25 13.5 34.914062 13.5 34.5 L 13.5 15 C 13.5 14.171875 14.171875 13.5 15 13.5 L 15 36.75 L 6 36.75 C 6 35.921875 6.671875 35.25 7.5 35.25 Z M 7.5 35.25 "/>
<path style=" stroke:none;fill-rule:nonzero;fill:rgb(70.980392%,12.54902%,14.509804%);fill-opacity:1;" d="M 15 9.75 L 24 9.75 L 24 10.5 L 15 10.5 Z M 15 9.75 "/>
<path style=" stroke:none;fill-rule:nonzero;fill:rgb(70.980392%,12.54902%,14.509804%);fill-opacity:1;" d="M 15 11.25 L 24 11.25 L 24 12 L 15 12 Z M 15 11.25 "/>
<path style=" stroke:none;fill-rule:nonzero;fill:rgb(1.568627%,50.196078%,23.921569%);fill-opacity:1;" d="M 6 15.75 L 15 15.75 L 15 16.5 L 6 16.5 Z M 6 15.75 "/>
<path style=" stroke:none;fill-rule:nonzero;fill:rgb(1.568627%,50.196078%,23.921569%);fill-opacity:1;" d="M 6 17.25 L 15 17.25 L 15 18 L 6 18 Z M 6 17.25 "/>
<path style=" stroke:none;fill-rule:nonzero;fill:rgb(1.568627%,50.196078%,23.921569%);fill-opacity:1;" d="M 6 31.5 L 15 31.5 L 15 32.25 L 6 32.25 Z M 6 31.5 "/>
<path style=" stroke:none;fill-rule:nonzero;fill:rgb(1.568627%,50.196078%,23.921569%);fill-opacity:1;" d="M 6 33 L 15 33 L 15 33.75 L 6 33.75 Z M 6 33 "/>
<path style=" stroke:none;fill-rule:nonzero;fill:rgb(0.784314%,38.039216%,64.313725%);fill-opacity:1;" d="M 33 15.75 L 42 15.75 L 42 16.5 L 33 16.5 Z M 33 15.75 "/>
<path style=" stroke:none;fill-rule:nonzero;fill:rgb(0.784314%,38.039216%,64.313725%);fill-opacity:1;" d="M 33 17.25 L 42 17.25 L 42 18 L 33 18 Z M 33 17.25 "/>
<path style=" stroke:none;fill-rule:nonzero;fill:rgb(0.784314%,38.039216%,64.313725%);fill-opacity:1;" d="M 33 31.5 L 42 31.5 L 42 32.25 L 33 32.25 Z M 33 31.5 "/>
<path style=" stroke:none;fill-rule:nonzero;fill:rgb(0.784314%,38.039216%,64.313725%);fill-opacity:1;" d="M 33 33 L 42 33 L 42 33.75 L 33 33.75 Z M 33 33 "/>
<path style=" stroke:none;fill-rule:nonzero;fill:rgb(94.117647%,59.607843%,12.54902%);fill-opacity:1;" d="M 24 11.25 L 33 11.25 L 33 12 L 24 12 Z M 24 11.25 "/>
<path style=" stroke:none;fill-rule:nonzero;fill:rgb(94.117647%,59.607843%,12.54902%);fill-opacity:1;" d="M 24 12.75 L 33 12.75 L 33 13.5 L 24 13.5 Z M 24 12.75 "/>
<path style=" stroke:none;fill-rule:nonzero;fill:rgb(94.117647%,59.607843%,12.54902%);fill-opacity:1;" d="M 24 31.5 L 33 31.5 L 33 32.25 L 24 32.25 Z M 24 31.5 "/>
<path style=" stroke:none;fill-rule:nonzero;fill:rgb(94.117647%,59.607843%,12.54902%);fill-opacity:1;" d="M 24 33 L 33 33 L 33 33.75 L 24 33.75 Z M 24 33 "/>
<path style=" stroke:none;fill-rule:nonzero;fill:rgb(70.980392%,12.54902%,14.509804%);fill-opacity:1;" d="M 15 30.75 L 24 30.75 L 24 31.5 L 15 31.5 Z M 15 30.75 "/>
<path style=" stroke:none;fill-rule:nonzero;fill:rgb(70.980392%,12.54902%,14.509804%);fill-opacity:1;" d="M 15 32.25 L 24 32.25 L 24 33 L 15 33 Z M 15 32.25 "/>
<path style=" stroke:none;fill-rule:nonzero;fill:rgb(88.627451%,89.411765%,90.196078%);fill-opacity:1;" d="M 20.15625 27 L 18.84375 27 C 18.792969 27 18.75 26.957031 18.75 26.90625 L 18.75 15.09375 C 18.75 15.042969 18.792969 15 18.84375 15 L 20.15625 15 C 20.207031 15 20.25 15.042969 20.25 15.09375 L 20.25 26.90625 C 20.25 26.957031 20.207031 27 20.15625 27 Z M 20.15625 27 "/>
<path style=" stroke:none;fill-rule:nonzero;fill:rgb(94.117647%,59.607843%,12.54902%);fill-opacity:1;" d="M 29.15625 26.25 L 27.84375 26.25 C 27.792969 26.25 27.75 26.207031 27.75 26.15625 L 27.75 18.09375 C 27.75 18.042969 27.792969 18 27.84375 18 L 29.15625 18 C 29.207031 18 29.25 18.042969 29.25 18.09375 L 29.25 26.15625 C 29.25 26.207031 29.207031 26.25 29.15625 26.25 Z M 29.15625 26.25 "/>
<path style=" stroke:none;fill-rule:nonzero;fill:rgb(88.627451%,89.411765%,90.196078%);fill-opacity:1;" d="M 11.15625 28.5 L 9.84375 28.5 C 9.792969 28.5 9.75 28.457031 9.75 28.40625 L 9.75 23.34375 C 9.75 23.292969 9.792969 23.25 9.84375 23.25 L 11.15625 23.25 C 11.207031 23.25 11.25 23.292969 11.25 23.34375 L 11.25 28.40625 C 11.25 28.457031 11.207031 28.5 11.15625 28.5 Z M 11.15625 28.5 "/>
<path style=" stroke:none;fill-rule:nonzero;fill:rgb(0.784314%,38.039216%,64.313725%);fill-opacity:1;" d="M 38.15625 29.25 L 36.84375 29.25 C 36.792969 29.25 36.75 29.207031 36.75 29.15625 L 36.75 24.09375 C 36.75 24.042969 36.792969 24 36.84375 24 L 38.15625 24 C 38.207031 24 38.25 24.042969 38.25 24.09375 L 38.25 29.15625 C 38.25 29.207031 38.207031 29.25 38.15625 29.25 Z M 38.15625 29.25 "/>
<path style=" stroke:none;fill-rule:nonzero;fill:rgb(88.627451%,89.411765%,90.196078%);fill-opacity:1;" d="M 11.15625 22.5 L 9.84375 22.5 C 9.792969 22.5 9.75 22.457031 9.75 22.40625 L 9.75 20.34375 C 9.75 20.292969 9.792969 20.25 9.84375 20.25 L 11.15625 20.25 C 11.207031 20.25 11.25 20.292969 11.25 20.34375 L 11.25 22.40625 C 11.25 22.457031 11.207031 22.5 11.15625 22.5 Z M 11.15625 22.5 "/>
<path style=" stroke:none;fill-rule:nonzero;fill:rgb(0.784314%,38.039216%,64.313725%);fill-opacity:1;" d="M 38.25 22.5 C 38.25 22.914062 37.914062 23.25 37.5 23.25 C 37.085938 23.25 36.75 22.914062 36.75 22.5 C 36.75 22.085938 37.085938 21.75 37.5 21.75 C 37.914062 21.75 38.25 22.085938 38.25 22.5 Z M 38.25 22.5 "/>
</g>
</svg>
